<?xml version="1.0" encoding="UTF-8" standalone="no" ?>
<!DOCTYPE svg PUBLIC "-//W3C//DTD SVG 1.1//EN" "http://www.w3.org/Graphics/SVG/1.1/DTD/svg11.dtd">
<svg xmlns="http://www.w3.org/2000/svg" xmlns:xlink="http://www.w3.org/1999/xlink" version="1.1" width="1280" height="1024" viewBox="0 0 1280 1024" xml:space="preserve">
<desc>Created with Fabric.js 4.4.0</desc>
<defs>
</defs>
<g transform="matrix(1 0 0 1 640 512)" id="background-logo"  >
<rect style="stroke: none; stroke-width: 0; stroke-dasharray: none; stroke-linecap: butt; stroke-dashoffset: 0; stroke-linejoin: miter; stroke-miterlimit: 4; fill: rgb(255,255,255); fill-opacity: 0; fill-rule: nonzero; opacity: 1;"  paint-order="stroke"  x="-640" y="-512" rx="0" ry="0" width="1280" height="1024" />
</g>
<g transform="matrix(1.9211538461538462 0 0 1.9211538461538462 640 390.6247388200934)" id="logo-logo"  >
<g style=""  paint-order="stroke"   >
		<g transform="matrix(2.6283490750621996 0 0 2.6283490750621996 0 0)"  >
<linearGradient id="SVGID_1_424048" gradientUnits="userSpaceOnUse" gradientTransform="matrix(0.02834646 0 0 -0.02834646 -861.8567 -449.6236)"  x1="32160.8984" y1="-19210.873" x2="33633.7812" y2="-17606.0039">
<stop offset="0%" style="stop-color:rgb(0,0,255);stop-opacity: 1"/>
<stop offset="100%" style="stop-color:rgb(255,102,0);stop-opacity: 1"/>
</linearGradient>
<path style="stroke: none; stroke-width: 1; stroke-dasharray: none; stroke-linecap: butt; stroke-dashoffset: 0; stroke-linejoin: miter; stroke-miterlimit: 4; fill: url(#SVGID_1_424048); fill-rule: nonzero; opacity: 1;"  paint-order="stroke"  transform=" translate(-72.05, -72.05000000000001)" d="M 72 37.3 C 79.6 37.3 86.5 40.4 91.5 45.4 C 96.5 50.4 99.6 57.3 99.6 64.9 C 99.6 72.5 96.5 79.30000000000001 91.5 84.30000000000001 L 91.5 84.30000000000001 C 88.1 87.70000000000002 83.9 90.20000000000002 79.2 91.4 L 82.7 104.60000000000001 C 83 105.7 82.2 106.80000000000001 81.10000000000001 106.80000000000001 L 62.8 106.80000000000001 C 61.699999999999996 106.80000000000001 59.9 106.60000000000001 59.9 103.9 L 59.9 89.5 L 59.9 74.3 L 59.9 65.89999999999999 C 59.9 65.19999999999999 60.199999999999996 64.69999999999999 60.9 64.69999999999999 L 70.4 64.69999999999999 C 71.60000000000001 64.69999999999999 72 64.79999999999998 72.30000000000001 66.19999999999999 L 76 79.7 C 78.7 79 81 77.60000000000001 82.9 75.7 L 82.9 75.7 C 85.7 72.9 87.4 69.10000000000001 87.4 64.8 C 87.4 60.5 85.7 56.699999999999996 82.9 53.9 C 80.10000000000001 51.1 76.30000000000001 49.4 72 49.4 C 67.7 49.4 63.9 51.1 61.1 53.9 C 58.300000000000004 56.699999999999996 56.6 60.5 56.6 64.8 L 56.6 85.1 C 56.6 86.89999999999999 55.4 86.69999999999999 54.9 86.3 C 54.6 86.1 54.3 85.8 54 85.5 C 53.5 85.1 53 84.6 52.6 84.2 C 47.6 79.2 44.5 72.3 44.5 64.7 C 44.5 57.1 47.6 50.2 52.6 45.300000000000004 L 52.6 45.300000000000004 C 57.5 40.3 64.4 37.3 72 37.3 z" stroke-linecap="round" />
</g>
		<g transform="matrix(2.6283490750621996 0 0 2.6283490750621996 22.472384591781804 35.48271251333969)"  >
<linearGradient id="SVGID_2_424049" gradientUnits="userSpaceOnUse" gradientTransform="matrix(0.02834646 0 0 -0.02834646 -861.8567 -449.6236)"  x1="32791.6094" y1="-19348.2793" x2="33969.1797" y2="-18024.8184">
<stop offset="0%" style="stop-color:rgb(0,0,255);stop-opacity: 1"/>
<stop offset="100%" style="stop-color:rgb(255,102,0);stop-opacity: 1"/>
</linearGradient>
<path style="stroke: none; stroke-width: 1; stroke-dasharray: none; stroke-linecap: butt; stroke-dashoffset: 0; stroke-linejoin: miter; stroke-miterlimit: 4; fill: url(#SVGID_2_424049); fill-rule: nonzero; opacity: 1;"  paint-order="stroke"  transform=" translate(-80.6, -85.55000000000001)" d="M 85.2 88.9 C 83.3 89.9 81.3 90.80000000000001 79.10000000000001 91.4 L 76 79.7 L 85.2 88.9 z" stroke-linecap="round" />
</g>
</g>
</g>
<g transform="matrix(1.9211538461538462 0 0 1.9211538461538462 639.9716329627402 675.8927454066791)" id="text-logo"  >
<g style=""  paint-order="stroke"   >
		<g transform="matrix(1 0 0 1 0 0)" id="text-logo-path-0"  >
<path style="stroke: none; stroke-width: 0; stroke-dasharray: none; stroke-linecap: butt; stroke-dashoffset: 0; stroke-linejoin: miter; stroke-miterlimit: 4; fill: rgb(62,25,194); fill-rule: nonzero; opacity: 1;"  paint-order="stroke"  transform=" translate(-202.495, 19.92)" d="M 18.98 -12.96 L 9.27 -12.96 L 9.27 -21.25 L 18.98 -21.25 Q 20.84 -21.25 21.98 -21.85 Q 23.13 -22.45 23.68 -23.5 Q 24.23 -24.55 24.23 -25.92 L 24.23 -25.92 Q 24.23 -27.4 23.68 -28.68 Q 23.13 -29.97 21.98 -30.75 Q 20.84 -31.53 18.98 -31.53 L 18.98 -31.53 L 13.1 -31.53 L 13.1 0 L 2.82 0 L 2.82 -39.81 L 18.98 -39.81 Q 23.82 -39.81 27.33 -38.01 Q 30.84 -36.2 32.74 -33.09 Q 34.64 -29.97 34.64 -25.98 L 34.64 -25.98 Q 34.64 -22.09 32.74 -19.17 Q 30.84 -16.24 27.33 -14.6 Q 23.82 -12.96 18.98 -12.96 L 18.98 -12.96 Z M 55.74 -39.81 L 55.74 0 L 45.52 0 L 45.52 -39.81 L 55.74 -39.81 Z M 87.29 -39.81 L 87.29 0 L 77.03 0 L 77.03 -39.81 L 87.29 -39.81 Z M 99.04 -39.81 L 99.04 -31.53 L 65.52 -31.53 L 65.52 -39.81 L 99.04 -39.81 Z M 121.89 -30.21 L 112.57 0 L 101.55 0 L 116.15 -39.81 L 123.1 -39.81 L 121.89 -30.21 Z M 129.44 0 L 120.09 -30.21 L 118.75 -39.81 L 125.78 -39.81 L 140.46 0 L 129.44 0 Z M 129.33 -14.96 L 129.33 -6.67 L 108.91 -6.67 L 108.91 -14.96 L 129.33 -14.96 Z M 150.05 -39.81 L 156.86 -23.35 L 163.66 -39.81 L 174.71 -39.81 L 162.08 -14.16 L 162.08 0 L 151.66 0 L 151.66 -14.16 L 139 -39.81 L 150.05 -39.81 Z M 195.43 -30.21 L 186.1 0 L 175.08 0 L 189.68 -39.81 L 196.63 -39.81 L 195.43 -30.21 Z M 202.97 0 L 193.62 -30.21 L 192.28 -39.81 L 199.31 -39.81 L 213.99 0 L 202.97 0 Z M 202.86 -14.96 L 202.86 -6.67 L 182.44 -6.67 L 182.44 -14.96 L 202.86 -14.96 Z M 222.3 -4.79 L 222.3 -4.79 Q 222.3 -6.95 223.8 -8.39 Q 225.3 -9.84 227.68 -9.84 L 227.68 -9.84 Q 230.09 -9.84 231.58 -8.39 Q 233.07 -6.95 233.07 -4.79 L 233.07 -4.79 Q 233.07 -2.63 231.58 -1.16 Q 230.09 0.3 227.68 0.3 L 227.68 0.3 Q 225.3 0.3 223.8 -1.16 Q 222.3 -2.63 222.3 -4.79 Z M 267.13 -13.7 L 277.35 -13.7 Q 277.19 -9.49 275.11 -6.28 Q 273.03 -3.06 269.36 -1.26 Q 265.68 0.55 260.7 0.55 L 260.7 0.55 Q 255.32 0.55 251.49 -1.82 Q 247.66 -4.18 245.65 -8.59 Q 243.64 -12.99 243.64 -19.09 L 243.64 -19.09 L 243.64 -20.7 Q 243.64 -26.82 245.75 -31.23 Q 247.85 -35.63 251.64 -38.01 Q 255.42 -40.39 260.54 -40.39 L 260.54 -40.39 Q 265.84 -40.39 269.47 -38.47 Q 273.09 -36.56 275.07 -33.25 Q 277.05 -29.94 277.41 -25.79 L 277.41 -25.79 L 267.18 -25.79 Q 267.13 -28.9 265.68 -30.43 Q 264.23 -31.96 260.54 -31.96 L 260.54 -31.96 Q 258.32 -31.96 256.89 -30.91 Q 255.45 -29.86 254.76 -27.41 Q 254.06 -24.96 254.06 -20.75 L 254.06 -20.75 L 254.06 -19.09 Q 254.06 -14.85 254.67 -12.4 Q 255.29 -9.95 256.75 -8.91 Q 258.21 -7.88 260.7 -7.88 L 260.7 -7.88 Q 262.75 -7.88 264.17 -8.48 Q 265.6 -9.08 266.35 -10.36 Q 267.1 -11.65 267.13 -13.7 L 267.13 -13.7 Z M 294.93 -39.81 L 301.73 -23.35 L 308.54 -39.81 L 319.59 -39.81 L 306.96 -14.16 L 306.96 0 L 296.54 0 L 296.54 -14.16 L 283.88 -39.81 L 294.93 -39.81 Z M 360.59 -20.48 L 360.59 -19.3 Q 360.59 -13.13 358.34 -8.68 Q 356.08 -4.24 352.12 -1.85 Q 348.15 0.55 343.04 0.55 L 343.04 0.55 Q 337.87 0.55 333.88 -1.85 Q 329.89 -4.24 327.63 -8.68 Q 325.38 -13.13 325.38 -19.3 L 325.38 -19.3 L 325.38 -20.48 Q 325.38 -26.66 327.62 -31.1 Q 329.86 -35.55 333.84 -37.95 Q 337.82 -40.36 342.99 -40.36 L 342.99 -40.36 Q 348.1 -40.36 352.08 -37.95 Q 356.06 -35.55 358.33 -31.1 Q 360.59 -26.66 360.59 -20.48 L 360.59 -20.48 Z M 350.18 -19.3 L 350.18 -20.54 Q 350.18 -24.31 349.34 -26.85 Q 348.51 -29.39 346.9 -30.68 Q 345.28 -31.96 342.99 -31.96 L 342.99 -31.96 Q 340.58 -31.96 338.99 -30.68 Q 337.41 -29.39 336.61 -26.85 Q 335.82 -24.31 335.82 -20.54 L 335.82 -20.54 L 335.82 -19.3 Q 335.82 -15.61 336.63 -13.04 Q 337.43 -10.47 339.03 -9.15 Q 340.63 -7.82 343.04 -7.82 L 343.04 -7.82 Q 345.34 -7.82 346.94 -9.15 Q 348.54 -10.47 349.36 -13.04 Q 350.18 -15.61 350.18 -19.3 L 350.18 -19.3 Z M 391.92 -39.81 L 402.17 -39.81 L 402.17 -14.03 Q 402.17 -9.32 400.22 -6.07 Q 398.26 -2.82 394.72 -1.13 Q 391.18 0.55 386.4 0.55 L 386.4 0.55 Q 381.67 0.55 378.07 -1.13 Q 374.47 -2.82 372.48 -6.07 Q 370.48 -9.32 370.48 -14.03 L 370.48 -14.03 L 370.48 -39.81 L 380.79 -39.81 L 380.79 -14.03 Q 380.79 -11.76 381.42 -10.36 Q 382.05 -8.97 383.31 -8.34 Q 384.56 -7.71 386.4 -7.71 L 386.4 -7.71 Q 388.26 -7.71 389.47 -8.34 Q 390.69 -8.97 391.3 -10.36 Q 391.92 -11.76 391.92 -14.03 L 391.92 -14.03 L 391.92 -39.81 Z" stroke-linecap="round" />
</g>
</g>
</g>
<g transform="matrix(1.9211538461538462 0 0 1.9211538461538462 640.4832902644231 770.5826351613364)" id="tagline-1386dcb6-bb4c-4415-90fd-a00bd4705674-logo"  >
<g style=""  paint-order="stroke"   >
		<g transform="matrix(1 0 0 1 0 0)" id="tagline-1386dcb6-bb4c-4415-90fd-a00bd4705674-logo-path-0"  >
<path style="stroke: none; stroke-width: 0; stroke-dasharray: none; stroke-linecap: butt; stroke-dashoffset: 0; stroke-linejoin: miter; stroke-miterlimit: 4; fill: rgb(251,101,4); fill-rule: nonzero; opacity: 1;"  paint-order="stroke"  transform=" translate(-149.94, 12.45)" d="M 14.42 -6.7 L 14.42 -6.7 Q 14.42 -7.37 14.14 -7.88 Q 13.86 -8.39 12.98 -8.9 Q 12.1 -9.4 10.31 -10 L 10.31 -10 Q 8.7 -10.54 7.18 -11.25 Q 5.66 -11.95 4.44 -12.89 Q 3.23 -13.84 2.51 -15.13 Q 1.79 -16.42 1.79 -18.15 L 1.79 -18.15 Q 1.79 -20.34 3.06 -21.92 Q 4.32 -23.5 6.51 -24.36 Q 8.7 -25.22 11.48 -25.22 L 11.48 -25.22 Q 14.24 -25.22 16.35 -24.29 Q 18.46 -23.36 19.66 -21.62 Q 20.87 -19.88 20.87 -17.45 L 20.87 -17.45 L 14.48 -17.45 Q 14.48 -18.25 14.14 -18.87 Q 13.81 -19.48 13.12 -19.82 Q 12.42 -20.17 11.35 -20.17 L 11.35 -20.17 Q 10.31 -20.17 9.6 -19.88 Q 8.89 -19.58 8.54 -19.11 Q 8.19 -18.65 8.19 -18.06 L 8.19 -18.06 Q 8.19 -17.4 8.73 -16.9 Q 9.28 -16.41 10.25 -15.98 Q 11.23 -15.55 12.51 -15.12 L 12.51 -15.12 Q 15.18 -14.27 17.03 -13.13 Q 18.88 -12 19.86 -10.43 Q 20.83 -8.87 20.83 -6.73 L 20.83 -6.73 Q 20.83 -4.46 19.7 -2.88 Q 18.56 -1.3 16.47 -0.48 Q 14.39 0.34 11.57 0.34 L 11.57 0.34 Q 9.62 0.34 7.75 -0.15 Q 5.88 -0.65 4.37 -1.69 Q 2.85 -2.73 1.96 -4.37 Q 1.06 -6 1.06 -8.27 L 1.06 -8.27 L 7.49 -8.27 Q 7.49 -7.25 7.73 -6.56 Q 7.98 -5.88 8.49 -5.46 Q 9.01 -5.04 9.78 -4.86 Q 10.54 -4.68 11.57 -4.68 L 11.57 -4.68 Q 12.63 -4.68 13.25 -4.97 Q 13.88 -5.26 14.15 -5.73 Q 14.42 -6.19 14.42 -6.7 Z M 46.52 -24.88 L 46.52 0 L 40.11 0 L 40.11 -24.88 L 46.52 -24.88 Z M 53.87 -24.88 L 53.87 -19.7 L 32.92 -19.7 L 32.92 -24.88 L 53.87 -24.88 Z M 75.08 -18.88 L 69.25 0 L 62.36 0 L 71.49 -24.88 L 75.83 -24.88 L 75.08 -18.88 Z M 79.8 0 L 73.95 -18.88 L 73.11 -24.88 L 77.51 -24.88 L 86.68 0 L 79.8 0 Z M 79.73 -9.35 L 79.73 -4.17 L 66.96 -4.17 L 66.96 -9.35 L 79.73 -9.35 Z M 98.63 -24.88 L 108.58 -24.88 Q 111.5 -24.88 113.64 -24.02 Q 115.77 -23.16 116.93 -21.48 Q 118.1 -19.81 118.1 -17.33 L 118.1 -17.33 Q 118.1 -15.11 117.44 -13.66 Q 116.78 -12.22 115.61 -11.3 Q 114.44 -10.39 112.87 -9.74 L 112.87 -9.74 L 110.77 -8.46 L 102.65 -8.46 L 102.61 -13.64 L 108.51 -13.64 Q 109.57 -13.64 110.28 -13.98 Q 110.99 -14.32 111.34 -15 Q 111.69 -15.67 111.69 -16.66 L 111.69 -16.66 Q 111.69 -18.1 110.9 -18.9 Q 110.12 -19.7 108.58 -19.7 L 108.58 -19.7 L 105.04 -19.7 L 105.04 0 L 98.63 0 L 98.63 -24.88 Z M 112.05 0 L 106.65 -10.95 L 113.45 -11.01 L 118.92 -0.27 L 118.92 0 L 112.05 0 Z M 143.9 -24.88 L 143.9 0 L 137.5 0 L 137.5 -24.88 L 143.9 -24.88 Z M 151.25 -24.88 L 151.25 -19.7 L 130.3 -19.7 L 130.3 -24.88 L 151.25 -24.88 Z M 192.65 -8.1 L 186.58 -8.1 L 186.58 -13.28 L 192.65 -13.28 Q 193.81 -13.28 194.53 -13.65 Q 195.25 -14.03 195.59 -14.69 Q 195.93 -15.35 195.93 -16.2 L 195.93 -16.2 Q 195.93 -17.12 195.59 -17.93 Q 195.25 -18.73 194.53 -19.22 Q 193.81 -19.7 192.65 -19.7 L 192.65 -19.7 L 188.97 -19.7 L 188.97 0 L 182.55 0 L 182.55 -24.88 L 192.65 -24.88 Q 195.67 -24.88 197.87 -23.75 Q 200.07 -22.63 201.25 -20.68 Q 202.44 -18.73 202.44 -16.24 L 202.44 -16.24 Q 202.44 -13.81 201.25 -11.98 Q 200.07 -10.15 197.87 -9.13 Q 195.67 -8.1 192.65 -8.1 L 192.65 -8.1 Z M 223.79 -18.88 L 217.96 0 L 211.07 0 L 220.2 -24.88 L 224.54 -24.88 L 223.79 -18.88 Z M 228.5 0 L 222.66 -18.88 L 221.82 -24.88 L 226.21 -24.88 L 235.39 0 L 228.5 0 Z M 228.44 -9.35 L 228.44 -4.17 L 215.67 -4.17 L 215.67 -9.35 L 228.44 -9.35 Z M 267.93 -13.57 L 267.93 -3.08 Q 267.27 -2.36 265.94 -1.56 Q 264.62 -0.77 262.62 -0.21 Q 260.62 0.34 257.92 0.34 L 257.92 0.34 Q 254.57 0.34 252.08 -1.07 Q 249.6 -2.48 248.22 -5.2 Q 246.84 -7.93 246.84 -11.86 L 246.84 -11.86 L 246.84 -12.99 Q 246.84 -16.94 248.23 -19.67 Q 249.61 -22.4 252.04 -23.82 Q 254.47 -25.24 257.58 -25.24 L 257.58 -25.24 Q 261.08 -25.24 263.27 -24.14 Q 265.45 -23.04 266.57 -21.07 Q 267.68 -19.11 267.92 -16.54 L 267.92 -16.54 L 261.75 -16.54 Q 261.59 -17.74 261.15 -18.53 Q 260.7 -19.31 259.9 -19.7 Q 259.1 -20.1 257.8 -20.1 L 257.8 -20.1 Q 256.45 -20.1 255.45 -19.35 Q 254.45 -18.59 253.9 -17.03 Q 253.36 -15.47 253.36 -13.02 L 253.36 -13.02 L 253.36 -11.86 Q 253.36 -9.47 253.88 -7.9 Q 254.4 -6.34 255.51 -5.58 Q 256.62 -4.82 258.38 -4.82 L 258.38 -4.82 Q 259.25 -4.82 259.86 -4.95 Q 260.46 -5.08 260.87 -5.26 Q 261.28 -5.45 261.51 -5.64 L 261.51 -5.64 L 261.51 -9.02 L 257.63 -9.02 L 257.63 -13.57 L 267.93 -13.57 Z M 298.76 -5.16 L 298.76 0 L 285.62 0 L 285.62 -5.16 L 298.76 -5.16 Z M 287.9 -24.88 L 287.9 0 L 281.47 0 L 281.47 -24.88 L 287.9 -24.88 Z M 297.07 -15.24 L 297.07 -10.27 L 285.62 -10.27 L 285.62 -15.24 L 297.07 -15.24 Z M 298.82 -24.88 L 298.82 -19.7 L 285.62 -19.7 L 285.62 -24.88 L 298.82 -24.88 Z" stroke-linecap="round" />
</g>
</g>
</g>
</svg>