<?xml version="1.0" standalone="no"?>
<!DOCTYPE svg PUBLIC "-//W3C//DTD SVG 20010904//EN"
 "http://www.w3.org/TR/2001/REC-SVG-20010904/DTD/svg10.dtd">
<svg version="1.0" xmlns="http://www.w3.org/2000/svg"
 width="354.000000pt" height="354.000000pt" viewBox="0 0 354.000000 354.000000"
 preserveAspectRatio="xMidYMid meet">
<metadata>
Created by potrace 1.14, written by Peter Selinger 2001-2017
</metadata>
<g transform="translate(0.000000,354.000000) scale(0.100000,-0.100000)"
fill="#000000" stroke="none">
<path d="M1076 2839 c-35 -51 33 -99 72 -51 16 21 15 37 -4 56 -22 22 -50 20
-68 -5z"/>
<path d="M2456 2834 c-20 -19 -20 -34 -1 -61 25 -35 87 -11 78 30 -12 48 -47
62 -77 31z"/>
<path d="M806 2784 c-21 -21 -20 -57 2 -77 36 -33 92 -11 92 35 0 49 -61 76
-94 42z"/>
<path d="M2735 2743 c-19 -18 -14 -71 8 -85 35 -22 87 7 87 48 -1 49 -60 72
-95 37z"/>
<path d="M1257 2693 c-25 -28 -22 -69 7 -89 36 -23 80 -1 84 41 3 39 -7 53
-44 61 -22 4 -34 1 -47 -13z"/>
<path d="M2259 2686 c-16 -35 -4 -74 25 -82 57 -14 93 31 66 82 -19 34 -76 34
-91 0z"/>
<path d="M1000 2612 c-57 -28 -71 -99 -26 -140 36 -34 85 -33 121 3 34 35 34
83 0 118 -34 33 -56 38 -95 19z"/>
<path d="M2543 2601 c-67 -17 -87 -99 -37 -146 56 -52 144 -16 144 57 0 59
-53 103 -107 89z"/>
<path d="M2026 2535 c-25 -23 -28 -31 -23 -67 6 -47 21 -65 64 -77 59 -17 116
34 105 94 -6 38 -37 66 -78 72 -33 4 -44 1 -68 -22z"/>
<path d="M1464 2536 c-90 -40 -43 -179 54 -161 37 6 72 49 72 88 0 37 -6 47
-40 70 -29 20 -45 21 -86 3z"/>
<path d="M733 2499 c-43 -16 -40 -74 5 -86 19 -4 30 -1 43 15 31 40 -2 89 -48
71z"/>
<path d="M2829 2483 c-9 -2 -21 -14 -27 -27 -15 -33 16 -71 51 -63 58 15 35
103 -24 90z"/>
<path d="M1218 2394 c-61 -26 -84 -112 -47 -173 16 -25 77 -52 104 -47 11 3
25 5 31 5 15 1 68 53 73 71 9 30 2 83 -14 107 -16 24 -71 54 -97 52 -7 0 -30
-7 -50 -15z"/>
<path d="M2264 2385 c-56 -29 -76 -112 -39 -168 18 -28 70 -56 94 -52 9 2 24
4 34 4 17 1 76 53 78 69 0 4 2 16 4 27 6 30 -13 79 -40 105 -30 29 -90 35
-131 15z"/>
<path d="M1740 2333 c-56 -29 -80 -95 -54 -149 25 -52 61 -70 131 -65 36 2 83
51 89 92 7 41 -19 109 -41 109 -7 0 -15 5 -17 11 -6 19 -71 20 -108 2z"/>
<path d="M858 2316 c-22 -16 -23 -62 -4 -82 33 -33 96 -6 96 41 0 47 -53 71
-92 41z"/>
<path d="M2640 2295 c-7 -8 -12 -26 -12 -40 0 -34 19 -55 52 -55 31 0 60 27
60 57 0 44 -72 71 -100 38z"/>
<path d="M2015 2183 c-61 -16 -118 -98 -110 -158 2 -17 4 -35 4 -41 1 -19 56
-73 85 -84 39 -15 90 -12 128 6 111 53 105 222 -9 270 -33 14 -61 16 -98 7z"/>
<path d="M1485 2170 c-126 -27 -165 -176 -69 -259 97 -84 244 -18 244 110 0
96 -86 168 -175 149z"/>
<path d="M1057 2139 c-65 -18 -88 -95 -43 -143 42 -46 123 -27 144 32 13 40
-3 86 -35 102 -37 19 -34 18 -66 9z"/>
<path d="M2460 2126 c-62 -20 -75 -95 -24 -143 40 -40 109 -25 133 28 31 71
-34 140 -109 115z"/>
<path d="M1715 1906 c-121 -58 -133 -212 -23 -299 137 -109 331 42 268 208
-13 35 -58 85 -76 85 -7 0 -14 5 -16 10 -2 6 -26 12 -53 15 -39 4 -61 0 -100
-19z"/>
<path d="M1235 1848 c-40 -22 -58 -51 -63 -99 -4 -45 -2 -51 31 -84 30 -30 42
-35 81 -35 36 0 52 6 78 29 30 27 33 35 33 86 0 53 -3 59 -35 86 -37 31 -88
38 -125 17z"/>
<path d="M2215 1849 c-27 -14 -55 -54 -61 -85 -12 -64 43 -134 105 -136 33 -1
91 20 91 32 0 5 7 15 15 23 26 26 25 83 -2 122 -35 51 -96 69 -148 44z"/>
<path d="M1423 1634 c-65 -28 -110 -145 -73 -189 7 -8 10 -15 6 -15 -17 0 51
-61 79 -70 35 -12 94 -10 101 2 3 5 9 6 13 3 5 -2 21 8 36 23 123 122 -4 315
-162 246z"/>
<path d="M2004 1599 c-17 -5 -46 -23 -63 -41 -69 -70 -46 -188 46 -237 32 -16
97 -14 137 7 37 19 67 68 74 120 4 40 -31 119 -59 127 -10 4 -19 11 -19 16 0
6 -4 8 -9 4 -5 -3 -12 -2 -15 3 -7 11 -55 12 -92 1z"/>
<path d="M1054 1562 c-65 -10 -88 -101 -38 -147 76 -70 185 24 128 110 -17 26
-57 43 -90 37z"/>
<path d="M2429 1521 c-36 -36 -38 -79 -6 -116 41 -48 114 -38 141 19 43 90
-65 167 -135 97z"/>
<path d="M1713 1357 c-35 -13 -72 -51 -74 -76 -6 -90 46 -151 125 -146 54 3
106 58 106 111 0 53 -32 98 -78 112 -22 7 -41 12 -43 11 -2 0 -18 -6 -36 -12z"/>
<path d="M1210 1343 c-44 -18 -72 -73 -63 -127 17 -105 160 -129 212 -36 32
58 22 105 -34 152 -20 17 -83 23 -115 11z"/>
<path d="M2260 1333 c-40 -21 -60 -54 -60 -101 0 -90 74 -140 158 -107 61 25
88 101 56 160 -31 58 -94 78 -154 48z"/>
<path d="M852 1304 c-28 -19 -28 -57 0 -84 28 -26 39 -25 71 4 23 22 25 28 16
54 -6 17 -20 33 -32 36 -30 8 -30 8 -55 -10z"/>
<path d="M2642 1294 c-46 -32 -13 -115 40 -99 52 16 65 58 28 95 -24 24 -38
25 -68 4z"/>
<path d="M1445 1139 c-71 -35 -40 -153 43 -163 43 -5 92 41 92 86 0 62 -76
106 -135 77z"/>
<path d="M713 1122 c-20 -13 -26 -58 -9 -75 18 -18 55 -12 72 12 26 35 -25 87
-63 63z"/>
<path d="M2016 1105 c-37 -34 -39 -86 -3 -122 55 -54 147 -16 147 62 0 76 -87
113 -144 60z"/>
<path d="M2812 1103 c-41 -16 -30 -83 15 -83 45 0 69 51 36 76 -19 14 -30 16
-51 7z"/>
<path d="M983 1075 c-32 -14 -51 -39 -48 -65 1 -8 3 -23 3 -33 3 -28 51 -67
84 -67 39 0 88 48 88 87 0 34 -38 80 -71 86 -14 3 -39 -1 -56 -8z"/>
<path d="M2514 1069 c-11 -6 -28 -24 -38 -40 -14 -24 -15 -35 -6 -63 13 -40
29 -55 64 -62 44 -8 90 25 102 70 9 39 -13 83 -48 95 -37 13 -46 13 -74 0z"/>
<path d="M1240 910 c-25 -25 -25 -44 -3 -70 24 -27 69 -26 87 3 40 60 -33 118
-84 67z"/>
<path d="M2267 908 c-35 -12 -45 -49 -23 -83 25 -38 80 -32 97 12 18 47 -25
88 -74 71z"/>
<path d="M803 838 c-42 -20 -42 -76 0 -95 47 -22 97 27 74 72 -18 36 -36 41
-74 23z"/>
<path d="M2716 834 c-19 -18 -19 -24 -6 -58 13 -36 55 -44 84 -17 24 23 25 51
3 79 -13 17 -62 15 -81 -4z"/>
<path d="M1073 759 c-17 -6 -23 -16 -23 -38 0 -40 32 -59 67 -40 48 26 7 98
-44 78z"/>
<path d="M2441 739 c-16 -15 -20 -27 -15 -42 13 -42 54 -50 78 -15 22 31 20
41 -12 61 -28 16 -30 15 -51 -4z"/>
</g>
</svg>
