<?xml version="1.0" standalone="no"?>
<!DOCTYPE svg PUBLIC "-//W3C//DTD SVG 20010904//EN"
 "http://www.w3.org/TR/2001/REC-SVG-20010904/DTD/svg10.dtd">
<svg version="1.0" xmlns="http://www.w3.org/2000/svg"
 width="632.000000pt" height="632.000000pt" viewBox="0 0 632.000000 632.000000"
 preserveAspectRatio="xMidYMid meet">
<metadata>
Created by potrace 1.14, written by Peter Selinger 2001-2017
</metadata>
<g transform="translate(0.000000,632.000000) scale(0.100000,-0.100000)"
fill="#000000" stroke="none">
<path d="M2781 5029 c-5 -171 -81 -385 -196 -554 -59 -86 -65 -92 -155 -150
-238 -153 -427 -366 -561 -630 l-44 -85 -45 5 c-24 3 -52 13 -61 23 -30 31
-46 105 -48 217 -1 60 -4 111 -5 113 -2 2 -20 -31 -40 -72 -171 -350 -166
-679 12 -887 l35 -41 3 -109 c5 -241 45 -449 127 -661 18 -46 22 -68 14 -69
-58 -5 -130 19 -191 62 -22 16 -41 27 -43 25 -6 -5 57 -176 84 -230 94 -186
214 -277 417 -317 47 -9 67 -19 100 -51 187 -184 405 -306 670 -376 93 -24
117 -26 301 -26 186 -1 207 1 305 27 125 33 186 55 302 113 128 64 279 173
368 265 73 78 111 120 159 182 29 37 60 67 68 67 37 0 178 82 244 141 111 100
198 304 215 502 l6 71 -41 -37 c-49 -45 -80 -53 -133 -38 l-40 13 7 61 c19
159 21 199 19 326 -3 126 -1 140 22 193 53 122 79 262 77 416 -2 180 -65 384
-162 527 l-21 30 -1 -65 c-3 -198 -24 -281 -75 -301 -26 -9 -44 -5 -44 11 0
16 -103 175 -165 255 -111 142 -265 280 -407 365 -93 56 -221 254 -277 429
-26 80 -51 213 -53 275 0 25 -4 46 -8 46 -17 0 -170 -216 -229 -326 -12 -21
-44 -75 -71 -119 -27 -44 -49 -86 -50 -92 0 -7 -8 -13 -17 -13 -9 0 -13 3 -10
7 25 24 -313 543 -353 543 -4 0 -8 -27 -9 -61z"/>
</g>
</svg>
