<?xml version="1.0" standalone="no"?>
<!DOCTYPE svg PUBLIC "-//W3C//DTD SVG 20010904//EN"
 "http://www.w3.org/TR/2001/REC-SVG-20010904/DTD/svg10.dtd">
<svg version="1.0" xmlns="http://www.w3.org/2000/svg"
 width="1000.000000pt" height="1000.000000pt" viewBox="0 0 1000.000000 1000.000000"
 preserveAspectRatio="xMidYMid meet">
<metadata>
Created by potrace 1.14, written by Peter Selinger 2001-2017
</metadata>
<g transform="translate(0.000000,1000.000000) scale(0.100000,-0.100000)"
fill="#000000" stroke="none">
<path d="M1520 6315 l0 -765 330 0 330 0 0 485 0 485 418 0 c606 0 754 -16
914 -102 118 -63 213 -192 255 -348 19 -72 25 -354 10 -462 l-8 -58 336 0
c310 0 336 1 343 18 4 9 7 114 7 232 0 245 -15 348 -70 517 -59 177 -126 289
-247 411 -163 164 -375 265 -683 324 -106 21 -142 22 -1022 25 l-913 4 0 -766z"/>
<path d="M5192 6318 l3 -763 328 -3 327 -2 0 765 0 765 -330 0 -330 0 2 -762z"/>
<path d="M7820 6315 l0 -765 330 0 330 0 0 765 0 765 -330 0 -330 0 0 -765z"/>
<path d="M2040 5364 l0 -65 48 3 47 3 3 63 3 62 -51 0 -50 0 0 -66z"/>
<path d="M1510 5081 l0 -311 50 0 50 0 0 119 0 119 108 3 c85 3 114 8 142 25
115 67 119 245 7 328 -26 19 -45 21 -193 24 l-164 4 0 -311z m305 194 c43 -42
30 -140 -22 -164 -13 -6 -60 -11 -103 -11 l-80 0 0 100 0 100 90 0 c83 0 93
-2 115 -25z"/>
<path d="M4140 5080 l0 -310 50 0 50 0 0 135 0 135 145 0 145 0 0 -135 0 -135
50 0 50 0 0 310 0 310 -50 0 -50 0 0 -130 0 -130 -145 0 -145 0 0 130 0 130
-50 0 -50 0 0 -310z"/>
<path d="M2290 5301 l0 -81 -30 0 c-29 0 -30 -2 -30 -45 0 -43 1 -45 30 -45
l30 0 0 -154 c0 -146 1 -156 23 -181 25 -29 82 -42 142 -31 35 7 36 8 33 49
-3 38 -5 42 -28 39 -14 -1 -35 0 -47 3 -22 5 -23 9 -23 140 l0 135 50 0 50 0
0 45 0 45 -50 0 -49 0 -3 78 -3 77 -47 3 -48 3 0 -80z"/>
<path d="M4874 5222 c-79 -38 -124 -118 -124 -223 0 -77 16 -125 56 -169 48
-53 105 -73 193 -68 58 3 78 9 113 33 63 44 93 110 93 205 0 94 -30 160 -93
204 -35 25 -53 30 -119 33 -62 3 -87 0 -119 -15z m174 -88 c35 -24 52 -68 52
-134 0 -103 -38 -150 -123 -150 -42 0 -54 5 -82 33 -22 22 -35 47 -40 75 -11
67 3 122 40 159 28 28 40 33 82 33 28 0 58 -7 71 -16z"/>
<path d="M5457 5216 c-44 -22 -47 -22 -47 -5 0 16 -8 19 -50 19 l-50 0 0 -230
0 -230 50 0 50 0 2 167 3 167 47 24 c37 19 56 23 83 18 55 -11 65 -44 65 -226
l0 -150 50 0 50 0 2 168 3 167 45 23 c52 27 95 23 123 -9 15 -18 17 -44 17
-185 l0 -164 50 0 50 0 0 173 c0 147 -3 178 -19 214 -27 58 -61 78 -136 78
-52 0 -70 -5 -113 -32 l-50 -31 -19 20 c-45 51 -133 62 -206 24z"/>
<path d="M6215 5221 c-151 -68 -166 -327 -26 -426 37 -26 53 -30 120 -33 73
-4 139 7 170 27 12 8 13 16 3 50 l-12 40 -43 -15 c-49 -19 -136 -20 -167 -4
-27 14 -60 68 -60 98 0 22 1 22 156 22 l157 0 -7 61 c-4 33 -11 71 -16 83 -14
37 -62 88 -97 102 -45 19 -130 17 -178 -5z m153 -88 c12 -10 24 -30 28 -45 l6
-28 -101 0 c-56 0 -101 2 -101 5 0 15 32 65 47 74 29 17 99 13 121 -6z"/>
<path d="M6738 5219 c-32 -16 -38 -17 -38 -4 0 11 -12 15 -50 15 l-50 0 0
-325 0 -325 50 0 50 0 0 110 0 110 42 -21 c33 -17 54 -20 103 -17 111 7 174
80 183 213 8 121 -29 203 -108 243 -56 28 -131 29 -182 1z m142 -96 c72 -64
59 -230 -20 -263 -36 -15 -101 -8 -135 14 -24 16 -25 21 -25 126 l0 110 38 19
c55 29 105 27 142 -6z"/>
<path d="M7675 5226 c-39 -18 -80 -62 -99 -108 -19 -44 -21 -155 -5 -213 32
-113 182 -169 287 -105 l32 20 0 -28 c0 -55 -20 -101 -50 -117 -37 -19 -113
-19 -176 0 -27 8 -53 15 -57 15 -4 0 -7 -21 -5 -47 3 -46 4 -48 43 -59 22 -7
78 -13 124 -13 107 -1 156 20 192 82 24 41 24 47 27 310 l3 267 -50 0 c-39 0
-51 -4 -51 -15 0 -19 2 -19 -45 5 -46 23 -125 26 -170 6z m172 -97 l44 -21 -3
-101 -3 -101 -32 -19 c-19 -11 -52 -19 -77 -19 -74 0 -104 31 -113 117 -7 70
11 121 51 146 40 25 79 24 133 -2z"/>
<path d="M8210 5224 c-46 -20 -77 -50 -103 -99 -18 -32 -22 -57 -22 -125 0
-102 25 -157 93 -205 38 -26 54 -30 122 -33 84 -4 180 18 180 42 0 7 -5 27
-11 44 l-10 31 -42 -16 c-51 -18 -135 -20 -166 -4 -28 15 -61 69 -61 99 0 22
1 22 150 22 l150 0 0 55 c0 58 -19 116 -48 148 -48 54 -158 73 -232 41z m135
-80 c16 -6 45 -54 45 -74 0 -6 -37 -10 -100 -10 -55 0 -100 2 -100 5 0 15 32
65 47 74 20 12 83 14 108 5z"/>
<path d="M2040 5000 l0 -230 50 0 50 0 0 230 0 230 -50 0 -50 0 0 -230z"/>
<path d="M2650 5186 l0 -46 60 0 c51 0 65 -4 85 -25 14 -13 25 -33 25 -44 0
-18 -3 -19 -26 -11 -37 14 -129 12 -168 -4 -109 -46 -112 -227 -4 -276 55 -25
109 -25 158 0 34 17 40 18 40 5 0 -11 12 -15 50 -15 l50 0 0 173 c0 144 -3
178 -18 207 -26 52 -71 73 -169 78 l-83 5 0 -47z m148 -202 c19 -5 22 -13 22
-53 0 -42 -3 -49 -31 -65 -40 -24 -103 -26 -125 -4 -21 21 -21 84 2 109 18 19
82 26 132 13z"/>
<path d="M2990 5219 c0 -7 36 -109 81 -229 l80 -217 -16 -39 c-24 -58 -43 -74
-87 -74 l-38 0 0 -45 0 -45 59 0 c66 0 100 19 128 73 9 18 62 156 119 307
l102 275 -45 3 c-25 2 -49 0 -53 -5 -4 -4 -31 -74 -61 -155 -30 -81 -56 -148
-59 -148 -3 0 -29 70 -59 155 l-55 155 -48 0 c-29 0 -48 -4 -48 -11z"/>
<path d="M3560 5187 l0 -45 71 -4 c77 -4 99 -19 99 -65 0 -20 -3 -21 -26 -13
-14 6 -51 10 -82 10 -107 0 -167 -57 -166 -156 1 -66 27 -109 79 -134 53 -25
105 -25 155 0 34 17 40 18 40 5 0 -11 12 -15 51 -15 l50 0 -3 184 c-3 169 -5
187 -24 213 -31 42 -70 57 -161 61 l-83 4 0 -45z m148 -203 c19 -5 22 -13 22
-53 0 -42 -3 -49 -31 -65 -43 -26 -107 -26 -125 -1 -22 30 -18 91 8 109 23 16
84 21 126 10z"/>
<path d="M7200 5186 l0 -46 60 0 c51 0 65 -4 85 -25 14 -13 25 -33 25 -44 0
-18 -3 -19 -26 -11 -14 6 -51 10 -82 10 -101 0 -161 -49 -169 -137 -12 -130
115 -213 232 -153 47 24 45 24 45 5 0 -11 12 -15 51 -15 l51 0 -4 183 c-2 154
-6 187 -21 210 -27 42 -73 60 -164 65 l-83 5 0 -47z m148 -202 c18 -5 22 -13
22 -49 0 -37 -5 -47 -31 -66 -36 -26 -102 -30 -124 -9 -26 27 -29 72 -5 103
18 23 29 27 68 27 26 0 57 -3 70 -6z"/>
<path d="M1520 3685 l0 -765 330 0 330 0 0 765 0 765 -330 0 -330 0 0 -765z"/>
<path d="M5197 4443 c-4 -3 -7 -348 -7 -765 l0 -758 330 0 330 0 0 765 0 765
-323 0 c-178 0 -327 -3 -330 -7z"/>
<path d="M7820 3685 l0 -765 330 0 330 0 0 765 0 765 -330 0 -330 0 0 -765z"/>
</g>
</svg>
